<?xml version="1.0" encoding="utf-8"?>
<!-- Generator: Adobe Illustrator 27.0.0, SVG Export Plug-In . SVG Version: 6.00 Build 0)  -->
<svg version="1.1" id="Layer_1" xmlns="http://www.w3.org/2000/svg" xmlns:xlink="http://www.w3.org/1999/xlink" x="0px" y="0px"
	 viewBox="0 0 300 150" style="enable-background:new 0 0 300 150;" xml:space="preserve">
<style type="text/css">
	.st0{fill:#3067B2;}
	.st1{fill:#FFFFFF;}
</style>
<rect class="st0" width="300" height="150"/>
<g>
	<path class="st1" d="M249.654,68.484h-10.1l-0.279,1.489c-2.281-1.676-5.26-2.281-8.471-2.281c-8.378,0-16.198,7.82-16.198,17.129
		c0,10.473,7.447,13.871,12.707,13.871c2.095,0,4.143-0.465,6.144-1.396l-0.186,0.652h10.1L249.654,68.484z M236.947,83.471
		c-0.465,3.863-3.305,6.516-6.796,6.516c-2.467,0-5.958-1.489-5.958-6.144c0-4.143,2.932-7.633,6.889-7.633
		C234.015,76.303,237.505,78.584,236.947,83.471"/>
	<polygon class="st1" points="149.628,97.993 138.783,97.993 135.012,90.732 129.194,97.993 116.953,97.993 130.404,82.913 
		122.957,68.484 133.895,68.484 137.293,76.117 142.925,68.484 155.26,68.484 141.808,83.751 	"/>
	<path class="st1" d="M213.395,77.374c0,1.024-0.093,2.188-0.372,3.305l-3.677,17.315h-9.681l3.491-16.291
		c0.559-2.095-1.583-4.049-3.677-4.049c-2.001,0-3.677,0.931-4.515,5.073l-3.305,15.36h-9.681l3.491-16.291
		c0.372-2.095-0.745-4.049-3.584-4.049c-2.001,0-3.77,0.931-4.608,5.073l-3.212,15.36h-9.775l6.33-29.463h8.937l-0.652,2.746
		c1.862-2.374,4.422-3.584,7.727-3.584c3.863,0,6.423,1.676,7.82,4.236c2.188-2.839,5.073-4.236,9.03-4.236
		C209.718,67.739,213.395,71.695,213.395,77.374"/>
	<path class="st1" d="M278,77.374c0,1.024-0.093,2.188-0.372,3.305l-3.677,17.315h-10.473l3.398-16.291
		c0.093-0.465,0.186-0.838,0.186-1.21c0-1.676-0.838-2.839-3.025-2.839c-2.001,0-3.77,0.931-4.608,5.073l-3.212,15.36h-9.681
		l6.237-29.556h8.937l-0.652,2.746c1.862-2.374,4.608-3.491,8.006-3.491C275.021,67.739,278,71.695,278,77.374"/>
	<path class="st1" d="M104.711,81.982c0,9.123-7.075,16.756-16.943,16.756c-8.192,0-15.081-5.353-15.081-14.243
		c0-9.123,7.075-16.756,16.943-16.756C97.823,67.646,104.711,73.045,104.711,81.982 M82.369,83.937c0,3.677,2.281,6.144,5.725,6.144
		c3.77,0,6.796-3.305,6.796-7.633c0-3.677-2.467-6.144-5.818-6.144C85.395,76.303,82.369,79.515,82.369,83.937"/>
	<path class="st1" d="M68.22,68.484l1.21-5.818h-9.216c0,0-4.794,22.342-4.794,22.528c-1.955,9.309,3.863,13.452,10.938,13.452
		c0.838,0,1.583-0.093,2.467-0.279l1.769-8.285h-1.583c-3.305,0-5.073-1.303-4.422-4.422l2.188-10.38h5.632l1.489-6.889
		L68.22,68.484z"/>
	<polygon class="st1" points="104.013,97.993 110.343,68.484 120.025,68.484 113.741,97.993 	"/>
	<polygon class="st1" points="152.095,97.993 158.285,68.484 168.013,68.484 161.683,97.993 	"/>
	<path class="st1" d="M22,97.993l2.281-10.845h9.588c1.21,0,2.374-0.652,3.212-1.676c1.024-1.303,0.931-2.932,0.745-4.143
		c0,0-2.653-12.614-2.932-14.057c-0.931-5.167,0.745-10.473,4.515-13.359c1.862-1.396,4.143-2.281,6.516-2.56
		c0.559-0.093,1.024-0.093,1.489-0.093h14.429l-2.281,10.845h-8.564c-1.396,0-3.025,0.186-4.143,1.583
		c-0.279,0.372-0.559,0.745-0.745,1.303c-0.372,1.303-0.186,2.653,0.093,3.863c0,0.186,2.374,11.497,2.374,11.497
		c0.279,1.396,0.559,2.746,0.559,4.049c0.093,3.491-0.931,6.796-3.025,9.216c-1.862,2.188-4.608,3.677-7.633,4.143
		c-0.745,0.093-1.583,0.186-2.56,0.186H22V97.993z"/>
	<polygon class="st1" points="112.112,60.105 110.995,65.412 120.723,65.412 121.84,60.105 	"/>
	<polygon class="st1" points="160.1,60.105 158.937,65.412 168.665,65.412 169.782,60.105 	"/>
</g>
</svg>
